<mxfile host="app.diagrams.net" agent="Mozilla/5.0 (Windows NT 10.0; Win64; x64) AppleWebKit/537.36 (KHTML, like Gecko) Chrome/136.0.0.0 Safari/537.36 Edg/136.0.0.0" version="26.2.14">
  <diagram id="P4fSxQIS_bYZbaJyJAJP" name="Страница — 1">
    <mxGraphModel dx="1244" dy="707" grid="1" gridSize="10" guides="1" tooltips="1" connect="1" arrows="1" fold="1" page="1" pageScale="1" pageWidth="827" pageHeight="1169" math="0" shadow="0">
      <root>
        <mxCell id="0" />
        <mxCell id="1" parent="0" />
        <mxCell id="2UO7JZK0lGJNJoQ7e2ok-1" value="" style="rounded=0;whiteSpace=wrap;html=1;" vertex="1" parent="1">
          <mxGeometry x="270" y="50" width="210" height="510" as="geometry" />
        </mxCell>
        <mxCell id="2UO7JZK0lGJNJoQ7e2ok-2" value="" style="endArrow=none;html=1;rounded=0;exitX=-0.005;exitY=0.063;exitDx=0;exitDy=0;exitPerimeter=0;entryX=0.999;entryY=0.062;entryDx=0;entryDy=0;entryPerimeter=0;" edge="1" parent="1" source="2UO7JZK0lGJNJoQ7e2ok-1" target="2UO7JZK0lGJNJoQ7e2ok-1">
          <mxGeometry width="50" height="50" relative="1" as="geometry">
            <mxPoint x="330" y="140" as="sourcePoint" />
            <mxPoint x="380" y="90" as="targetPoint" />
          </mxGeometry>
        </mxCell>
        <mxCell id="2UO7JZK0lGJNJoQ7e2ok-3" value="Сайт Мой ПТК" style="text;html=1;align=center;verticalAlign=middle;whiteSpace=wrap;rounded=0;" vertex="1" parent="1">
          <mxGeometry x="327.5" y="50" width="95" height="30" as="geometry" />
        </mxCell>
        <mxCell id="2UO7JZK0lGJNJoQ7e2ok-4" value="Администратор" style="shape=umlActor;verticalLabelPosition=bottom;verticalAlign=top;html=1;outlineConnect=0;" vertex="1" parent="1">
          <mxGeometry x="140" y="150" width="30" height="60" as="geometry" />
        </mxCell>
        <mxCell id="2UO7JZK0lGJNJoQ7e2ok-5" value="" style="endArrow=classic;html=1;rounded=0;entryX=0;entryY=0.5;entryDx=0;entryDy=0;" edge="1" parent="1" source="2UO7JZK0lGJNJoQ7e2ok-4" target="2UO7JZK0lGJNJoQ7e2ok-6">
          <mxGeometry width="50" height="50" relative="1" as="geometry">
            <mxPoint x="180" y="180" as="sourcePoint" />
            <mxPoint x="230" y="180" as="targetPoint" />
            <Array as="points">
              <mxPoint x="240" y="180" />
              <mxPoint x="240" y="115" />
            </Array>
          </mxGeometry>
        </mxCell>
        <mxCell id="2UO7JZK0lGJNJoQ7e2ok-6" value="Управление заявками регистрации" style="ellipse;whiteSpace=wrap;html=1;" vertex="1" parent="1">
          <mxGeometry x="315" y="90" width="120" height="50" as="geometry" />
        </mxCell>
        <mxCell id="2UO7JZK0lGJNJoQ7e2ok-9" value="Управление пользователями" style="ellipse;whiteSpace=wrap;html=1;" vertex="1" parent="1">
          <mxGeometry x="322.5" y="155" width="112.5" height="50" as="geometry" />
        </mxCell>
        <mxCell id="2UO7JZK0lGJNJoQ7e2ok-10" value="Управление оборудованием" style="ellipse;whiteSpace=wrap;html=1;" vertex="1" parent="1">
          <mxGeometry x="322.5" y="210" width="120" height="50" as="geometry" />
        </mxCell>
        <mxCell id="2UO7JZK0lGJNJoQ7e2ok-11" value="" style="endArrow=classic;html=1;rounded=0;entryX=0;entryY=0.5;entryDx=0;entryDy=0;" edge="1" parent="1" target="2UO7JZK0lGJNJoQ7e2ok-9">
          <mxGeometry width="50" height="50" relative="1" as="geometry">
            <mxPoint x="240" y="180" as="sourcePoint" />
            <mxPoint x="220" y="240" as="targetPoint" />
          </mxGeometry>
        </mxCell>
        <mxCell id="2UO7JZK0lGJNJoQ7e2ok-12" value="" style="endArrow=classic;html=1;rounded=0;entryX=0;entryY=0.5;entryDx=0;entryDy=0;" edge="1" parent="1" target="2UO7JZK0lGJNJoQ7e2ok-10">
          <mxGeometry width="50" height="50" relative="1" as="geometry">
            <mxPoint x="240" y="180" as="sourcePoint" />
            <mxPoint x="250" y="250" as="targetPoint" />
            <Array as="points">
              <mxPoint x="240" y="235" />
            </Array>
          </mxGeometry>
        </mxCell>
        <mxCell id="2UO7JZK0lGJNJoQ7e2ok-13" value="Преподаватель" style="shape=umlActor;verticalLabelPosition=bottom;verticalAlign=top;html=1;outlineConnect=0;" vertex="1" parent="1">
          <mxGeometry x="590" y="280" width="30" height="60" as="geometry" />
        </mxCell>
        <mxCell id="2UO7JZK0lGJNJoQ7e2ok-14" value="Создание заявки на ремонт" style="ellipse;whiteSpace=wrap;html=1;" vertex="1" parent="1">
          <mxGeometry x="322.5" y="270" width="120" height="50" as="geometry" />
        </mxCell>
        <mxCell id="2UO7JZK0lGJNJoQ7e2ok-15" value="Управление заявкой на ремонт" style="ellipse;whiteSpace=wrap;html=1;" vertex="1" parent="1">
          <mxGeometry x="322.5" y="330" width="120" height="50" as="geometry" />
        </mxCell>
        <mxCell id="2UO7JZK0lGJNJoQ7e2ok-16" value="" style="endArrow=classic;html=1;rounded=0;entryX=1;entryY=0.5;entryDx=0;entryDy=0;" edge="1" parent="1" source="2UO7JZK0lGJNJoQ7e2ok-13" target="2UO7JZK0lGJNJoQ7e2ok-10">
          <mxGeometry width="50" height="50" relative="1" as="geometry">
            <mxPoint x="570" y="250" as="sourcePoint" />
            <mxPoint x="620" y="200" as="targetPoint" />
            <Array as="points">
              <mxPoint x="520" y="310" />
              <mxPoint x="520" y="235" />
            </Array>
          </mxGeometry>
        </mxCell>
        <mxCell id="2UO7JZK0lGJNJoQ7e2ok-17" value="" style="endArrow=classic;html=1;rounded=0;entryX=1;entryY=0.5;entryDx=0;entryDy=0;" edge="1" parent="1" target="2UO7JZK0lGJNJoQ7e2ok-14">
          <mxGeometry width="50" height="50" relative="1" as="geometry">
            <mxPoint x="520" y="310" as="sourcePoint" />
            <mxPoint x="690" y="430" as="targetPoint" />
          </mxGeometry>
        </mxCell>
        <mxCell id="2UO7JZK0lGJNJoQ7e2ok-18" value="" style="endArrow=classic;html=1;rounded=0;entryX=1;entryY=0.5;entryDx=0;entryDy=0;" edge="1" parent="1" target="2UO7JZK0lGJNJoQ7e2ok-15">
          <mxGeometry width="50" height="50" relative="1" as="geometry">
            <mxPoint x="520" y="310" as="sourcePoint" />
            <mxPoint x="453" y="305" as="targetPoint" />
            <Array as="points">
              <mxPoint x="520" y="355" />
            </Array>
          </mxGeometry>
        </mxCell>
        <mxCell id="2UO7JZK0lGJNJoQ7e2ok-19" value="Выполнение заявки на ремонт" style="ellipse;whiteSpace=wrap;html=1;" vertex="1" parent="1">
          <mxGeometry x="322.5" y="390" width="120" height="50" as="geometry" />
        </mxCell>
        <mxCell id="2UO7JZK0lGJNJoQ7e2ok-20" value="Редактирование оборудования" style="ellipse;whiteSpace=wrap;html=1;" vertex="1" parent="1">
          <mxGeometry x="322.5" y="470" width="120" height="50" as="geometry" />
        </mxCell>
        <mxCell id="2UO7JZK0lGJNJoQ7e2ok-21" value="Лаборант" style="shape=umlActor;verticalLabelPosition=bottom;verticalAlign=top;html=1;outlineConnect=0;" vertex="1" parent="1">
          <mxGeometry x="140" y="470" width="30" height="60" as="geometry" />
        </mxCell>
        <mxCell id="2UO7JZK0lGJNJoQ7e2ok-22" value="" style="endArrow=classic;html=1;rounded=0;entryX=0;entryY=0.5;entryDx=0;entryDy=0;" edge="1" parent="1" source="2UO7JZK0lGJNJoQ7e2ok-21" target="2UO7JZK0lGJNJoQ7e2ok-19">
          <mxGeometry width="50" height="50" relative="1" as="geometry">
            <mxPoint x="240" y="450" as="sourcePoint" />
            <mxPoint x="290" y="400" as="targetPoint" />
            <Array as="points">
              <mxPoint x="240" y="500" />
              <mxPoint x="240" y="415" />
            </Array>
          </mxGeometry>
        </mxCell>
        <mxCell id="2UO7JZK0lGJNJoQ7e2ok-23" value="" style="endArrow=classic;html=1;rounded=0;entryX=0;entryY=0.5;entryDx=0;entryDy=0;" edge="1" parent="1" target="2UO7JZK0lGJNJoQ7e2ok-20">
          <mxGeometry width="50" height="50" relative="1" as="geometry">
            <mxPoint x="240" y="500" as="sourcePoint" />
            <mxPoint x="320" y="600" as="targetPoint" />
          </mxGeometry>
        </mxCell>
      </root>
    </mxGraphModel>
  </diagram>
</mxfile>
